# xmcd
#
# Track frame offsets:
#	150
#	16154
#	32612
#	53701
#	68534
#	85574
#	99282
#	114729
#	128966
#	145495
#	157160
#	172877
#	194453
#	209106
#
# Disc length: 2985 seconds
# Revision: 3
# Processed by: cddbd v1.5.2PL0 Copyright (c) Steve Scherf et al.
# Submitted via: dBpowerAMP V12.0
#
DISCID=bd0ba70e
DTITLE=Blues - the perfect blues collection 25 original albums (Sony 88697847832) - CD02 Big Bill Broonzy 1952 Big Bill Blues
DYEAR=2011
DGENRE=Blues
TTITLE0=Big Bill Blues
TTITLE1=Hey Hey Baby
TTITLE2=Low Land Blues
TTITLE3=House Rent Stomp
TTITLE4=Make My Getaway
TTITLE5=John Henry
TTITLE6=Feelin' Low Down
TTITLE7=Black, Brown And White
TTITLE8=Blues In 1890
TTITLE9=Willie Mae Blues
TTITLE10=Guitar Shuffle
TTITLE11=In The Evening
TTITLE12=What I Used To Do
TTITLE13=Lonesome Road Blues
EXTD=
EXTT0=
EXTT1=
EXTT2=
EXTT3=
EXTT4=
EXTT5=
EXTT6=
EXTT7=
EXTT8=
EXTT9=
EXTT10=
EXTT11=
EXTT12=
EXTT13=
PLAYORDER=
